<svg xmlns="http://www.w3.org/2000/svg" xmlns:xlink="http://www.w3.org/1999/xlink" width="293" height="220.405" viewBox="0 0 293 220.405">
  <defs>
    <radialGradient id="radial-gradient" cx="0.475" cy="0.517" r="1.391" gradientUnits="objectBoundingBox">
      <stop offset="0" stop-color="#42e8e0"/>
      <stop offset="0.11" stop-color="#37b6bf"/>
      <stop offset="0.22" stop-color="#2c87a1"/>
      <stop offset="0.34" stop-color="#235f87"/>
      <stop offset="0.46" stop-color="#1c3f72"/>
      <stop offset="0.58" stop-color="#162561"/>
      <stop offset="0.71" stop-color="#121355"/>
      <stop offset="0.85" stop-color="#10084e"/>
      <stop offset="1" stop-color="#0f054c"/>
    </radialGradient>
    <linearGradient id="linear-gradient" x1="0.643" y1="0.828" x2="0.357" y2="0.172" xlink:href="#radial-gradient"/>
    <clipPath id="clip-path">
      <path id="Path_10" data-name="Path 10" d="M244.014,240.068,163.48,193.56c-3.628-2.077-3.139-5.7,1.007-8.092L320.8,95.237c4.146-2.395,10.423-2.658,14.015-.581l80.534,46.508c3.628,2.077,3.139,5.7-1.007,8.092L258.066,239.487C253.884,241.882,247.607,242.145,244.014,240.068Z" transform="translate(-161.042 -93.255)" opacity="0.5" fill="url(#radial-gradient)"/>
    </clipPath>
    <linearGradient id="linear-gradient-2" x1="0.099" y1="-0.38" x2="0.894" y2="0.768" gradientUnits="objectBoundingBox">
      <stop offset="0" stop-color="#bcbeff"/>
      <stop offset="0.23" stop-color="#aaadf8"/>
      <stop offset="0.68" stop-color="#7c83e5"/>
      <stop offset="1" stop-color="#5761d7"/>
    </linearGradient>
    <linearGradient id="linear-gradient-3" y1="0.5" x2="1" y2="0.5" gradientUnits="objectBoundingBox">
      <stop offset="0" stop-color="#e9e9fd"/>
      <stop offset="0.36" stop-color="#d3d2f9"/>
      <stop offset="0.71" stop-color="#c5c4f7"/>
      <stop offset="1" stop-color="#c0bff6"/>
    </linearGradient>
    <linearGradient id="linear-gradient-4" x1="0" y1="0.499" x2="1" y2="0.499" xlink:href="#linear-gradient-3"/>
    <linearGradient id="linear-gradient-5" x1="0" y1="0.5" x2="1" y2="0.5" xlink:href="#linear-gradient-3"/>
    <linearGradient id="linear-gradient-6" x1="0.1" y1="-0.384" x2="0.893" y2="0.769" xlink:href="#linear-gradient-2"/>
    <linearGradient id="linear-gradient-7" x1="0" y1="0.5" x2="1" y2="0.5" xlink:href="#linear-gradient-3"/>
    <linearGradient id="linear-gradient-9" x1="0" y1="0.5" x2="1.001" y2="0.5" xlink:href="#linear-gradient-3"/>
    <linearGradient id="linear-gradient-10" x1="0.099" y1="-0.386" x2="0.893" y2="0.766" xlink:href="#linear-gradient-2"/>
    <linearGradient id="linear-gradient-11" x1="0" y1="0.5" x2="1" y2="0.5" xlink:href="#linear-gradient-3"/>
    <linearGradient id="linear-gradient-13" x1="-0.001" y1="0.5" x2="1.001" y2="0.5" xlink:href="#linear-gradient-3"/>
    <clipPath id="clip-path-2">
      <path id="Path_73" data-name="Path 73" d="M318.194,176.808l-9.969,5.742-39.7-22.914V115.55l49.674,28.674Z" transform="translate(-268.52 -115.55)" fill="none"/>
    </clipPath>
  </defs>
  <g id="_950_Converted_-01" data-name="950 [Converted]-01" transform="translate(-157.34 -70.719)">
    <g id="Ñëîé_1" data-name="Ñëîé 1" transform="translate(157.34 70.719)">
      <path id="Path_1" data-name="Path 1" d="M249.794,270.328a13.008,13.008,0,0,1-6.35-1.47l-83.51-48.214a4.5,4.5,0,0,1-2.594-3.792c0-1.814,1.324-3.556,3.628-4.889l159.245-91.946c4.327-2.5,10.885-2.767,14.668-.6l83.51,48.213a4.5,4.5,0,0,1,2.594,3.792c0,1.814-1.324,3.556-3.629,4.889L258.085,268.26A17.036,17.036,0,0,1,249.794,270.328Zm-6.2-1.814c3.628,2.114,10.078,1.814,14.305-.6L417.176,176c2.2-1.27,3.456-2.939,3.456-4.536a4.162,4.162,0,0,0-2.413-3.474l-83.51-48.213c-3.629-2.114-10.078-1.814-14.305.6L161.123,212.282c-2.2,1.27-3.456,2.939-3.456,4.536a4.162,4.162,0,0,0,2.413,3.474Z" transform="translate(-157.34 -75.106)" fill="#00b159"/>
      <path id="Path_2" data-name="Path 2" d="M420.828,148.028,408.836,150.1l-73.994-42.734c-3.71-2.141-10.2-1.878-14.514.6l-141.62,81.759L157.5,193.348v7.52h0a4.189,4.189,0,0,0,2.495,3.628L243.5,252.71c3.71,2.141,10.2,1.878,14.514-.6L417.281,160.2c2.3-1.333,3.5-3.03,3.538-4.654h0Z" transform="translate(-157.355 -73.988)" fill="#00b159"/>
      <path id="Path_3" data-name="Path 3" d="M243.522,244.033,160,195.82c-3.71-2.141-3.247-5.887,1.043-8.364L320.328,95.5c4.291-2.476,10.777-2.721,14.514-.6L418.3,143.116c3.71,2.141,3.247,5.887-1.043,8.364L258.009,243.435C253.718,245.911,247.232,246.183,243.522,244.033Z" transform="translate(-157.355 -72.832)" fill="#19d873"/>
      <path id="Path_4" data-name="Path 4" d="M417.281,156.987,258.009,248.942c-4.291,2.476-10.777,2.721-14.514.6L160,201.327a4.535,4.535,0,0,1-2.467-3.166c-.227,1.542.571,3.048,2.467,4.146l83.51,48.213c3.71,2.141,10.2,1.878,14.514-.6l159.254-91.964c2.567-1.479,3.755-3.42,3.5-5.2C420.565,154.248,419.386,155.772,417.281,156.987Z" transform="translate(-157.355 -78.339)" fill="#fff"/>
      <path id="Path_5" data-name="Path 5" d="M244.014,242.358,163.48,195.85c-3.628-2.077-3.139-5.7,1.007-8.092L320.8,97.527c4.146-2.395,10.423-2.658,14.015-.581l80.534,46.508c3.628,2.077,3.139,5.7-1.007,8.092L258.066,241.777C253.884,244.172,247.607,244.435,244.014,242.358Z" transform="translate(-157.684 -73.025)" fill="#003519"/>
      <path id="Path_6" data-name="Path 6" d="M250.076,241.7a12.7,12.7,0,0,1-6.214-1.424L163.328,193.77a4.436,4.436,0,0,1-2.558-3.737c0-1.742,1.3-3.492,3.565-4.808l156.3-90.231c4.209-2.431,10.622-2.721,14.278-.581l80.534,46.508A4.436,4.436,0,0,1,418,144.658c0,1.742-1.3,3.492-3.565,4.808l-156.3,90.222a16.573,16.573,0,0,1-8.064,2.014Zm-5.96-1.878c3.52,2.032,9.688,1.814,13.761-.581l156.315-90.222c2.1-1.216,3.3-2.8,3.3-4.354a3.946,3.946,0,0,0-2.3-3.293L334.665,94.857c-3.52-2.032-9.688-1.814-13.761.581l-156.3,90.231c-2.1,1.216-3.3,2.8-3.3,4.354a3.946,3.946,0,0,0,2.3,3.293Z" transform="translate(-157.659 -72.786)" opacity="0.8" fill="url(#linear-gradient)"/>
      <g id="Group_2" data-name="Group 2" transform="translate(3.358 20.442)" opacity="0.1">
        <path id="Path_7" data-name="Path 7" d="M244.014,240.068,163.48,193.56c-3.628-2.077-3.139-5.7,1.007-8.092L320.8,95.237c4.146-2.395,10.423-2.658,14.015-.581l80.534,46.508c3.628,2.077,3.139,5.7-1.007,8.092L258.066,239.487C253.884,241.882,247.607,242.145,244.014,240.068Z" transform="translate(-161.042 -93.255)" opacity="0.5" fill="url(#radial-gradient)"/>
        <g id="Group_1" data-name="Group 1" clip-path="url(#clip-path)">
          <path id="Path_8" data-name="Path 8" d="M347.325,232.815c0-10.114-7.1-22.415-15.866-27.477-4.39-2.531-8.364-2.767-11.23-1.1h0l-3,1.751.907.082c-1.578,1.932-2.5,4.79-2.5,8.427,0,10.114,7.1,22.415,15.866,27.477a13.36,13.36,0,0,0,8.219,2.1l-.064.807,3.048-1.814h0l.127-.073h0C345.6,241.306,347.325,237.8,347.325,232.815Z" transform="translate(-175.4 -103.464)" fill="#9ffff8"/>
          <path id="Path_9" data-name="Path 9" d="M343.981,234.774c0,10.114-7.1,14.215-15.866,9.153S312.25,226.565,312.25,216.45s7.1-14.215,15.866-9.162S343.981,224.66,343.981,234.774Z" transform="translate(-175.086 -103.645)" fill="#42e8e0"/>
        </g>
      </g>
      <path id="Path_11" data-name="Path 11" d="M421.889,154.273a4.917,4.917,0,0,1-4.454,0,1.353,1.353,0,0,1,0-2.567,4.917,4.917,0,0,1,4.454,0C423.114,152.4,423.114,153.556,421.889,154.273Z" transform="translate(-181.411 -78.192)" fill="#24126a" opacity="0.4"/>
      <path id="Path_12" data-name="Path 12" d="M403.171,140.9l8.717,5.035c1.061.617.907,1.687-.3,2.395h0a4.617,4.617,0,0,1-4.155.172l-8.717-5.035c-1.061-.617-.907-1.687.3-2.395h0a4.617,4.617,0,0,1,4.155-.172Z" transform="translate(-179.693 -77.199)" fill="#24126a" opacity="0.4"/>
      <path id="Path_13" data-name="Path 13" d="M348.372,107.628l8.717,5.035c1.061.617.907,1.687-.3,2.395h0a4.617,4.617,0,0,1-4.155.172l-8.708-5.035c-1.061-.617-.907-1.687.3-2.395h0A4.617,4.617,0,0,1,348.372,107.628Z" transform="translate(-174.604 -74.109)" fill="#24126a" opacity="0.4"/>
      <path id="Path_14" data-name="Path 14" d="M421.889,150.823a4.917,4.917,0,0,1-4.454,0,1.353,1.353,0,0,1,0-2.567,4.917,4.917,0,0,1,4.454,0A1.356,1.356,0,0,1,421.889,150.823Z" transform="translate(-181.411 -77.871)" fill="#19d873"/>
      <path id="Path_15" data-name="Path 15" d="M403.171,137.448l8.717,5.035c1.061.617.907,1.687-.3,2.395h0a4.617,4.617,0,0,1-4.155.172l-8.717-5.035c-1.061-.617-.907-1.687.3-2.395h0a4.617,4.617,0,0,1,4.155-.172Z" transform="translate(-179.693 -76.879)" fill="#19d873"/>
      <path id="Path_16" data-name="Path 16" d="M348.372,104.188l8.717,5.035c1.061.617.907,1.687-.3,2.395h0a4.617,4.617,0,0,1-4.155.172l-8.708-5.035c-1.061-.617-.907-1.687.3-2.395h0A4.617,4.617,0,0,1,348.372,104.188Z" transform="translate(-174.604 -73.79)" fill="#19d873"/>
      <g id="Group_4" data-name="Group 4" transform="translate(9.307 45.218)" opacity="0.3">
        <path id="Path_17" data-name="Path 17" d="M214.227,139.372v-4.064l-1.125-.626c-.317,1.923-2.576,3.184-4.463,3.447l-12.854,7.52-5.579,1.987L172.3,138.392l.417-.236c-1.533-.717-2.359-2.349-3.184-3.846l-1.206.717-.717.2v4.245h0a2.721,2.721,0,0,0,1.578,2.2l17.943,10.359a8.436,8.436,0,0,0,7.62,0l17.943-10.359a2.721,2.721,0,0,0,1.533-2.2v-.109Z" transform="translate(-167.601 -121.844)" fill="url(#linear-gradient-2)"/>
        <path id="Path_18" data-name="Path 18" d="M211.064,138.172l-12.854,7.52-4.88,1.76v5.5a7.792,7.792,0,0,0,3.81-.907l17.943-10.359a2.721,2.721,0,0,0,1.533-2.168s0-.073,0-.109h0v-4.064l-1.025-.571h-.109C215.164,136.666,212.933,137.909,211.064,138.172Z" transform="translate(-169.99 -121.887)" fill="#0f054c" opacity="0.3"/>
        <path id="Path_19" data-name="Path 19" d="M187.121,146.6l-17.943-10.359c-2.1-1.216-2.1-3.184,0-4.4l17.943-10.359a8.436,8.436,0,0,1,7.62,0l17.943,10.368c2.1,1.216,2.1,3.184,0,4.4L194.741,146.6a8.436,8.436,0,0,1-7.62-.009Z" transform="translate(-167.6 -120.568)" fill="url(#linear-gradient-3)"/>
        <g id="Group_3" data-name="Group 3" opacity="0.3">
          <path id="Path_20" data-name="Path 20" d="M187.121,146.6l-17.943-10.359c-2.1-1.216-2.1-3.184,0-4.4l17.943-10.359a8.436,8.436,0,0,1,7.62,0l17.943,10.368c2.1,1.216,2.1,3.184,0,4.4L194.741,146.6a8.436,8.436,0,0,1-7.62-.009Z" transform="translate(-167.6 -120.568)" fill="#0f054c"/>
        </g>
      </g>
      <path id="Path_21" data-name="Path 21" d="M190.988,132.864a6.912,6.912,0,0,1-3.384-.807L169.662,121.7a2.168,2.168,0,0,1,0-4.091L187.6,107.247a7.493,7.493,0,0,1,6.767,0l17.943,10.359a2.168,2.168,0,0,1,0,4.091l-17.988,10.359a6.912,6.912,0,0,1-3.338.807Zm0-26.107a6.6,6.6,0,0,0-3.229.771l-17.925,10.359a1.86,1.86,0,0,0,0,3.538l17.943,10.359a7.13,7.13,0,0,0,6.45,0l17.925-10.323a1.86,1.86,0,0,0,0-3.538l-17.943-10.359a6.6,6.6,0,0,0-3.22-.807Z" transform="translate(-158.35 -74.037)" fill="#26bd72"/>
      <path id="Path_22" data-name="Path 22" d="M214.223,115.9v-6.141l-1.125-.626c-.317,1.923-2.576,3.184-4.463,3.447l-12.854,7.52-5.615,2.023-17.907-9.244.417-.236c-1.533-.717-2.359-2.349-3.184-3.846l-1.206.717-.717.2v6.25h0a2.721,2.721,0,0,0,1.578,2.2l17.943,10.359a8.436,8.436,0,0,0,7.62,0l17.943-10.359A2.721,2.721,0,0,0,214.232,116s0-.073,0-.109Z" transform="translate(-158.29 -74.256)" fill="#42e8e0" opacity="0.4"/>
      <path id="Path_23" data-name="Path 23" d="M214.223,110.085v-4.064L213.1,105.4c-.317,1.923-2.576,3.184-4.463,3.447l-12.854,7.52-5.615,2.023-17.907-9.244.417-.236c-1.533-.717-2.359-2.349-3.184-3.846l-1.206.717-.717.2v4.173h0a2.721,2.721,0,0,0,1.578,2.2L187.091,122.7a8.436,8.436,0,0,0,7.62,0l17.97-10.35a2.721,2.721,0,0,0,1.578-2.159v-.109Z" transform="translate(-158.29 -73.909)" fill="#38c674"/>
      <path id="Path_24" data-name="Path 24" d="M211.064,108.883,198.21,116.4l-4.88,1.76v5.5a7.792,7.792,0,0,0,3.81-.907l17.934-10.359a2.721,2.721,0,0,0,1.578-2.159v-.109h0v-4.064l-1.025-.571h-.109C215.164,107.377,212.933,108.629,211.064,108.883Z" transform="translate(-160.683 -73.949)" fill="#26bd72"/>
      <path id="Path_25" data-name="Path 25" d="M172.908,107.725l17.027-9.815a2.721,2.721,0,0,1,2.44,0l16.709,9.643-.181.109c1.887-.263,4.146-1.524,4.463-3.447l-18.75-10.432-5.443-1.442-4.445,2.613-14.967,8.926C170.549,105.375,171.375,107.008,172.908,107.725Z" transform="translate(-158.494 -72.727)" fill="#26bd72"/>
      <path id="Path_26" data-name="Path 26" d="M191.127,92.876l-2-.526-4.445,2.613-14.967,8.926c.825,1.488,1.651,3.13,3.184,3.846l17.036-9.824a2.5,2.5,0,0,1,1.225-.29Z" transform="translate(-158.489 -72.728)" fill="#19d873"/>
      <path id="Path_27" data-name="Path 27" d="M187.121,117.335l-17.943-10.359c-2.1-1.216-2.1-3.184,0-4.4l17.943-10.359a8.436,8.436,0,0,1,7.62,0l17.943,10.332c2.1,1.216,2.1,3.184,0,4.4l-17.943,10.387a8.436,8.436,0,0,1-7.62,0Zm5.025-23.585a2.721,2.721,0,0,0-2.44,0l-17.943,10.359a.744.744,0,0,0,0,1.406l17.97,10.3a2.721,2.721,0,0,0,2.44,0l17.943-10.359a.744.744,0,0,0,0-1.406Z" transform="translate(-158.293 -72.632)" fill="url(#linear-gradient-4)"/>
      <path id="Path_28" data-name="Path 28" d="M210.464,104.26,192.522,93.9a2.721,2.721,0,0,0-2.44,0L172.139,104.26c-.445.263-.6.626-.445.962a1.034,1.034,0,0,1,.444-.454L190.109,94.4a2.721,2.721,0,0,1,2.44,0l17.943,10.359a1.034,1.034,0,0,1,.444.454C211.063,104.849,210.918,104.514,210.464,104.26Z" transform="translate(-158.668 -72.846)" fill="#fff"/>
      <path id="Path_29" data-name="Path 29" d="M212.686,108.353,194.743,118.74a8.436,8.436,0,0,1-7.62,0L169.18,108.38a2.83,2.83,0,0,1-1.56-1.95,2.54,2.54,0,0,0,1.56,2.449l17.943,10.359a8.436,8.436,0,0,0,7.62,0l17.943-10.359a2.54,2.54,0,0,0,1.56-2.449A2.83,2.83,0,0,1,212.686,108.353Z" transform="translate(-158.295 -74.036)" fill="#fff"/>
      <path id="Path_30" data-name="Path 30" d="M187.7,117.057,169.761,106.7c-1.814-1.052-1.814-2.721,0-3.819L187.7,92.519a7.311,7.311,0,0,1,6.6,0L212.25,102.86c1.814,1.052,1.814,2.721,0,3.81l-17.907,10.387a7.311,7.311,0,0,1-6.64,0Zm5.025-23.585a3.819,3.819,0,0,0-3.456,0l-17.943,10.3a1.052,1.052,0,0,0,0,2l17.943,10.359a3.819,3.819,0,0,0,3.456,0l17.943-10.341a1.052,1.052,0,0,0,0-2Z" transform="translate(-158.367 -72.671)" fill="url(#linear-gradient-5)"/>
      <path id="Path_31" data-name="Path 31" d="M192.962,94.22a2.721,2.721,0,0,0-2.44,0L172.579,104.58a.744.744,0,0,0,0,1.406l17.943,10.359a2.721,2.721,0,0,0,2.44,0L210.9,105.986a.744.744,0,0,0,0-1.406Z" transform="translate(-158.709 -72.875)" fill="#19d873" opacity="0.4"/>
      <g id="Group_6" data-name="Group 6" transform="translate(179.964 189.342)" opacity="0.3">
        <path id="Path_32" data-name="Path 32" d="M402.383,298.255v-4.064l-1.125-.626c-.318,1.923-2.576,3.184-4.463,3.447l-12.854,7.52-5.615,2.023-17.907-9.244.417-.236c-1.533-.717-2.359-2.349-3.184-3.846l-1.206.717-.717.2v4.173h0a2.721,2.721,0,0,0,1.578,2.2l17.943,10.359a8.436,8.436,0,0,0,7.62,0l17.943-10.359a2.722,2.722,0,0,0,1.578-2.159v-.109Z" transform="translate(-355.73 -280.728)" fill="url(#linear-gradient-6)"/>
        <path id="Path_33" data-name="Path 33" d="M399.184,297.053l-12.854,7.52-4.88,1.76v5.5a7.792,7.792,0,0,0,3.81-.907L403.2,300.563a2.721,2.721,0,0,0,1.578-2.159V298.3h0v-4.064l-1.025-.572h-.109C403.293,295.547,401.062,296.79,399.184,297.053Z" transform="translate(-358.119 -280.768)" fill="#0f054c" opacity="0.3"/>
        <path id="Path_34" data-name="Path 34" d="M375.251,305.475l-17.943-10.359c-2.1-1.216-2.1-3.184,0-4.4l17.943-10.359a8.436,8.436,0,0,1,7.62,0l17.943,10.359c2.1,1.216,2.1,3.184,0,4.4l-17.943,10.359a8.436,8.436,0,0,1-7.62,0Z" transform="translate(-355.73 -279.448)" fill="url(#linear-gradient-7)"/>
        <g id="Group_5" data-name="Group 5" opacity="0.3">
          <path id="Path_35" data-name="Path 35" d="M375.251,305.475l-17.943-10.359c-2.1-1.216-2.1-3.184,0-4.4l17.943-10.359a8.436,8.436,0,0,1,7.62,0l17.943,10.359c2.1,1.216,2.1,3.184,0,4.4l-17.943,10.359a8.436,8.436,0,0,1-7.62,0Z" transform="translate(-355.73 -279.448)" fill="#0f054c"/>
        </g>
      </g>
      <path id="Path_36" data-name="Path 36" d="M379.118,291.744a6.912,6.912,0,0,1-3.384-.807l-17.943-10.359a2.168,2.168,0,0,1,0-4.091l17.943-10.359a7.493,7.493,0,0,1,6.767,0L400.481,276.5a2.168,2.168,0,0,1,0,4.091l-17.943,10.359a6.912,6.912,0,0,1-3.42.8Zm0-26.107a6.594,6.594,0,0,0-3.229.771l-17.943,10.359a1.86,1.86,0,0,0,0,3.538l17.943,10.359a7.13,7.13,0,0,0,6.45,0l17.943-10.359a1.86,1.86,0,0,0,0-3.538l-17.943-10.359a6.6,6.6,0,0,0-3.22-.771Z" transform="translate(-175.823 -88.794)" fill="#26bd72"/>
      <path id="Path_37" data-name="Path 37" d="M402.383,274.782v-6.141l-1.125-.626c-.318,1.923-2.576,3.184-4.463,3.447l-12.854,7.52L378.326,281l-17.907-9.253.417-.236c-1.533-.717-2.359-2.349-3.184-3.846l-1.206.717-.717.2v6.25h0a2.721,2.721,0,0,0,1.578,2.2l17.943,10.359a8.436,8.436,0,0,0,7.62,0l17.943-10.35a2.721,2.721,0,0,0,1.578-2.159v-.109Z" transform="translate(-175.766 -89.012)" fill="#42e8e0" opacity="0.4"/>
      <path id="Path_38" data-name="Path 38" d="M402.383,268.966V264.9l-1.125-.626c-.318,1.923-2.576,3.184-4.463,3.447l-12.854,7.52-5.615,2.023-17.907-9.234.417-.236c-1.533-.717-2.359-2.349-3.184-3.846l-1.206.717-.717.2v4.173h0a2.721,2.721,0,0,0,1.578,2.2l17.943,10.359a8.436,8.436,0,0,0,7.62,0l17.943-10.341a2.721,2.721,0,0,0,1.578-2.159v-.109Z" transform="translate(-175.766 -88.666)" fill="#38c674"/>
      <path id="Path_39" data-name="Path 39" d="M399.184,267.763l-12.854,7.52-4.88,1.76v5.5a7.793,7.793,0,0,0,3.81-.907L403.2,271.291a2.721,2.721,0,0,0,1.578-2.159v-.109h0v-4.082l-1.025-.572h-.109C403.293,266.257,401.062,267.509,399.184,267.763Z" transform="translate(-178.155 -88.705)" fill="#26bd72"/>
      <path id="Path_40" data-name="Path 40" d="M361.035,266.606l17-9.815a2.721,2.721,0,0,1,2.44,0l16.709,9.652-.181.109c1.887-.263,4.146-1.524,4.463-3.447l-18.75-10.432-5.443-1.442-4.445,2.613-14.967,8.926C358.676,264.256,359.5,265.889,361.035,266.606Z" transform="translate(-175.964 -87.485)" fill="#26bd72"/>
      <path id="Path_41" data-name="Path 41" d="M379.258,251.756l-2-.526-4.445,2.613-14.967,8.926c.826,1.488,1.651,3.13,3.184,3.846l17-9.815a2.5,2.5,0,0,1,1.225-.29Z" transform="translate(-175.963 -87.485)" fill="#19d873"/>
      <path id="Path_42" data-name="Path 42" d="M375.251,276.185l-17.943-10.359c-2.1-1.216-2.1-3.184,0-4.4l17.943-10.359a8.436,8.436,0,0,1,7.62,0l17.943,10.359c2.1,1.216,2.1,3.184,0,4.4l-17.943,10.359a8.436,8.436,0,0,1-7.62,0Zm5.025-23.585a2.721,2.721,0,0,0-2.44,0l-17.943,10.359a.744.744,0,0,0,0,1.406l17.943,10.323a2.721,2.721,0,0,0,2.44,0l17.943-10.359a.744.744,0,0,0,0-1.406Z" transform="translate(-175.766 -87.385)" fill="url(#linear-gradient-7)"/>
      <path id="Path_43" data-name="Path 43" d="M398.594,263.14,380.652,252.78a2.721,2.721,0,0,0-2.44,0L360.269,263.14c-.444.263-.6.626-.444.962a1.034,1.034,0,0,1,.444-.454l17.943-10.359a2.721,2.721,0,0,1,2.44,0l17.943,10.359a1.034,1.034,0,0,1,.444.454C399.193,263.766,399.048,263.394,398.594,263.14Z" transform="translate(-176.141 -87.602)" fill="#fff"/>
      <path id="Path_44" data-name="Path 44" d="M400.816,267.23,382.873,277.59a8.436,8.436,0,0,1-7.62,0L357.31,267.23a2.83,2.83,0,0,1-1.56-1.95,2.54,2.54,0,0,0,1.56,2.449l17.943,10.359a8.436,8.436,0,0,0,7.62,0l17.943-10.341a2.54,2.54,0,0,0,1.56-2.449,2.83,2.83,0,0,1-1.56,1.932Z" transform="translate(-175.768 -88.79)" fill="#fff"/>
      <path id="Path_45" data-name="Path 45" d="M375.831,275.937l-17.97-10.359c-1.814-1.052-1.814-2.721,0-3.819L375.8,251.4a7.311,7.311,0,0,1,6.6,0l17.943,10.359c1.814,1.052,1.814,2.721,0,3.81l-17.943,10.359A7.311,7.311,0,0,1,375.831,275.937Zm5.025-23.585a3.819,3.819,0,0,0-3.456,0l-17.943,10.314a1.052,1.052,0,0,0,0,2L377.4,275.021a3.819,3.819,0,0,0,3.456,0L398.8,264.661a1.052,1.052,0,0,0,0-2Z" transform="translate(-175.838 -87.428)" fill="url(#linear-gradient-9)"/>
      <path id="Path_46" data-name="Path 46" d="M381.092,253.1a2.721,2.721,0,0,0-2.44,0L360.709,263.46a.744.744,0,0,0,0,1.406l17.943,10.359a2.721,2.721,0,0,0,2.44,0l17.934-10.359a.744.744,0,0,0,0-1.406Z" transform="translate(-176.182 -87.632)" fill="#19d873" opacity="0.4"/>
      <g id="Group_8" data-name="Group 8" transform="translate(246.32 148.549)" opacity="0.3">
        <path id="Path_47" data-name="Path 47" d="M475.543,253.29v-4.064l-1.125-.626c-.318,1.923-2.576,3.184-4.463,3.447l-12.845,7.52-5.624,2.068-17.907-9.244.417-.236c-1.533-.717-2.359-2.349-3.184-3.846l-1.206.717-.717.2V253.4h0a2.721,2.721,0,0,0,1.578,2.2l17.943,10.359a8.436,8.436,0,0,0,7.62,0l17.943-10.359a2.721,2.721,0,0,0,1.578-2.159s0-.073,0-.109Z" transform="translate(-428.881 -235.762)" fill="url(#linear-gradient-10)"/>
        <path id="Path_48" data-name="Path 48" d="M472.345,252.083,459.5,259.6l-4.88,1.76v5.5a7.792,7.792,0,0,0,3.81-.907l17.943-10.359a2.721,2.721,0,0,0,1.578-2.159v-.109h0v-4.064l-1.025-.571h-.109C476.445,250.577,474.214,251.82,472.345,252.083Z" transform="translate(-431.271 -235.798)" fill="#0f054c" opacity="0.3"/>
        <path id="Path_49" data-name="Path 49" d="M448.4,260.505l-17.943-10.359c-2.1-1.216-2.1-3.184,0-4.4L448.4,235.387a8.436,8.436,0,0,1,7.62,0l17.943,10.359c2.1,1.216,2.1,3.184,0,4.4l-17.943,10.359A8.436,8.436,0,0,1,448.4,260.505Z" transform="translate(-428.88 -234.478)" fill="url(#linear-gradient-11)"/>
        <g id="Group_7" data-name="Group 7" transform="translate(0 0)" opacity="0.3">
          <path id="Path_50" data-name="Path 50" d="M448.4,260.505l-17.943-10.359c-2.1-1.216-2.1-3.184,0-4.4L448.4,235.387a8.436,8.436,0,0,1,7.62,0l17.943,10.359c2.1,1.216,2.1,3.184,0,4.4l-17.943,10.359A8.436,8.436,0,0,1,448.4,260.505Z" transform="translate(-428.88 -234.478)" fill="#0f054c"/>
        </g>
      </g>
      <path id="Path_51" data-name="Path 51" d="M452.268,246.774a6.912,6.912,0,0,1-3.384-.807l-17.943-10.359a2.168,2.168,0,0,1,0-4.091l17.943-10.359a7.493,7.493,0,0,1,6.767,0l17.943,10.359a2.168,2.168,0,0,1,0,4.091l-17.943,10.359a6.912,6.912,0,0,1-3.384.807Zm0-26.107a6.594,6.594,0,0,0-3.229.771L431.1,231.825a1.86,1.86,0,0,0,0,3.538L449,245.695a7.13,7.13,0,0,0,6.45,0l17.943-10.359a1.86,1.86,0,0,0,0-3.538l-17.943-10.359a6.6,6.6,0,0,0-3.184-.771Z" transform="translate(-182.617 -84.617)" fill="#26bd72"/>
      <path id="Path_52" data-name="Path 52" d="M475.544,229.812v-6.141l-1.125-.626c-.318,1.923-2.576,3.184-4.463,3.447L457.111,234l-5.615,2.023-17.907-9.244.417-.236c-1.533-.717-2.359-2.349-3.184-3.846l-1.206.717-.717.2v6.25h0a2.721,2.721,0,0,0,1.578,2.2l17.943,10.359a8.436,8.436,0,0,0,7.62,0l17.925-10.377a2.721,2.721,0,0,0,1.578-2.159v-.109Z" transform="translate(-182.562 -84.835)" fill="#42e8e0" opacity="0.4"/>
      <path id="Path_53" data-name="Path 53" d="M475.544,224v-4.1l-1.125-.626c-.318,1.923-2.576,3.184-4.463,3.447l-12.845,7.547L451.5,232.3l-17.907-9.244.417-.236c-1.533-.717-2.359-2.349-3.184-3.846l-1.206.717-.717.2v4.173h0a2.721,2.721,0,0,0,1.578,2.2l17.943,10.359a8.436,8.436,0,0,0,7.62,0l17.925-10.359a2.721,2.721,0,0,0,1.578-2.159v-.109Z" transform="translate(-182.562 -84.489)" fill="#38c674"/>
      <path id="Path_54" data-name="Path 54" d="M472.345,222.79,459.5,230.31l-4.88,1.76v5.5a7.792,7.792,0,0,0,3.81-.907l17.925-10.368a2.721,2.721,0,0,0,1.578-2.159v-.109h0v-4.082l-1.025-.571H476.8C476.445,221.293,474.214,222.536,472.345,222.79Z" transform="translate(-184.951 -84.526)" fill="#26bd72"/>
      <path id="Path_55" data-name="Path 55" d="M434.184,221.633l17-9.815a2.721,2.721,0,0,1,2.44,0l16.709,9.625-.181.109c1.887-.263,4.146-1.524,4.463-3.447l-18.75-10.432-5.443-1.442-4.445,2.613L431,217.814C431.835,219.283,432.651,220.916,434.184,221.633Z" transform="translate(-182.757 -83.305)" fill="#26bd72"/>
      <path id="Path_56" data-name="Path 56" d="M452.408,206.786l-2-.526-4.445,2.613L431,217.817c.825,1.488,1.651,3.13,3.184,3.846l17-9.815a2.5,2.5,0,0,1,1.225-.29Z" transform="translate(-182.757 -83.308)" fill="#19d873"/>
      <path id="Path_57" data-name="Path 57" d="M448.4,231.215l-17.943-10.359c-2.1-1.216-2.1-3.184,0-4.4L448.4,206.1a8.436,8.436,0,0,1,7.62,0l17.943,10.359c2.1,1.216,2.1,3.184,0,4.4l-17.943,10.359A8.436,8.436,0,0,1,448.4,231.215Zm5.025-23.585a2.721,2.721,0,0,0-2.44,0l-17.943,10.359a.744.744,0,0,0,0,1.406l17.943,10.359a2.721,2.721,0,0,0,2.44,0L471.37,219.4a.744.744,0,0,0,0-1.406Z" transform="translate(-182.56 -83.209)" fill="url(#linear-gradient-11)"/>
      <path id="Path_58" data-name="Path 58" d="M471.754,218.17,453.812,207.81a2.721,2.721,0,0,0-2.44,0L433.429,218.17c-.444.263-.6.626-.444.962a1.034,1.034,0,0,1,.444-.454l17.943-10.359a2.721,2.721,0,0,1,2.44,0l17.943,10.359a1.034,1.034,0,0,1,.444.454C472.353,218.8,472.2,218.424,471.754,218.17Z" transform="translate(-182.936 -83.425)" fill="#fff"/>
      <path id="Path_59" data-name="Path 59" d="M473.966,222.259l-17.943,10.359a8.436,8.436,0,0,1-7.62,0L430.46,222.259a2.83,2.83,0,0,1-1.56-1.95,2.54,2.54,0,0,0,1.56,2.449L448.4,233.118a8.436,8.436,0,0,0,7.62,0l17.943-10.368a2.54,2.54,0,0,0,1.56-2.449,2.83,2.83,0,0,1-1.56,1.959Z" transform="translate(-182.562 -84.612)" fill="#fff"/>
      <path id="Path_60" data-name="Path 60" d="M449.023,230.967l-17.943-10.359c-1.814-1.052-1.814-2.721,0-3.819l17.943-10.359a7.312,7.312,0,0,1,6.6,0l17.888,10.359c1.814,1.052,1.814,2.721,0,3.81l-17.943,10.359a7.311,7.311,0,0,1-6.549.009Zm5.026-23.585a3.819,3.819,0,0,0-3.456,0L432.65,217.741a1.052,1.052,0,0,0,0,2L450.593,230.1a3.819,3.819,0,0,0,3.456,0l17.943-10.359a1.052,1.052,0,0,0,0-2Z" transform="translate(-182.638 -83.251)" fill="url(#linear-gradient-13)"/>
      <path id="Path_61" data-name="Path 61" d="M454.252,208.13a2.721,2.721,0,0,0-2.44,0L433.869,218.49a.744.744,0,0,0,0,1.406l17.943,10.359a2.721,2.721,0,0,0,2.44,0L472.195,219.9a.744.744,0,0,0,0-1.406Z" transform="translate(-182.977 -83.455)" fill="#19d873" opacity="0.4"/>
      <path id="Path_62" data-name="Path 62" d="M347.325,159.255c0-10.114-7.1-22.415-15.866-27.477-4.39-2.531-8.364-2.767-11.23-1.1h0l-3,1.751.907.082c-1.578,1.932-2.5,4.79-2.5,8.427,0,10.114,7.1,22.415,15.866,27.477a13.36,13.36,0,0,0,8.219,2.1l-.064.807,3.048-1.814h0l.127-.073h0C345.6,167.746,347.325,164.226,347.325,159.255Z" transform="translate(-172.042 -76.189)" fill="#19d873"/>
      <path id="Path_63" data-name="Path 63" d="M343.981,161.205c0,10.114-7.1,14.215-15.866,9.162S312.25,153,312.25,142.89s7.1-14.215,15.866-9.162S343.981,151.091,343.981,161.205Z" transform="translate(-171.728 -76.371)" fill="#26bd72"/>
      <path id="Path_64" data-name="Path 64" d="M307.6,110.066c5.869-8.237,7.257-22.379,3.03-31.577-2.1-4.608-5.2-7.112-8.509-7.42h0l-3.456-.308.662.571c-2.413.662-4.817,2.449-6.93,5.443-5.869,8.237-7.257,22.379-3.03,31.577a13.5,13.5,0,0,0,5.443,6.477l-.517.617,3.511.317h.181C301.27,115.98,304.718,114.12,307.6,110.066Z" transform="translate(-169.375 -70.723)" fill="#19d873"/>
      <path id="Path_65" data-name="Path 65" d="M303.743,109.744c-5.869,8.237-14.033,7.447-18.233-1.751s-2.839-23.34,3.039-31.577,14.033-7.447,18.233,1.751S309.622,101.517,303.743,109.744Z" transform="translate(-169.018 -70.719)" fill="#26bd72"/>
      <g id="Group_9" data-name="Group 9" transform="translate(108.8 76.294)" opacity="0.1">
        <path id="Path_66" data-name="Path 66" d="M312.355,184.465c0-10.114-7.1-22.415-15.866-27.477-4.39-2.531-8.364-2.767-11.23-1.1h0l-3,1.751.907.082c-1.578,1.932-2.5,4.79-2.5,8.427,0,10.114,7.1,22.415,15.866,27.477a13.36,13.36,0,0,0,8.219,2.1l-.064.807,3.048-1.814h0l.127-.073h0C310.631,192.956,312.355,189.454,312.355,184.465Z" transform="translate(-277.594 -154.825)" fill="#9ffff8"/>
        <path id="Path_67" data-name="Path 67" d="M309.011,186.425c0,10.114-7.1,14.215-15.866,9.162S277.28,178.225,277.28,168.11s7.1-14.215,15.866-9.162S309.011,176.3,309.011,186.425Z" transform="translate(-277.28 -155.007)" fill="#42e8e0"/>
      </g>
      <path id="Path_68" data-name="Path 68" d="M291.52,200.628c-10.94,0-21.889-2.4-30.216-7.257-8.1-4.681-12.564-10.885-12.564-17.535S253.2,162.982,261.3,158.3c16.664-9.625,43.769-9.615,60.432,0,8.1,4.681,12.564,10.885,12.564,17.535s-4.463,12.863-12.564,17.535l-.082-.136.082.136C313.381,198.178,302.5,200.628,291.52,200.628Zm0-49.193c-10.885,0-21.771,2.395-30.062,7.175-8,4.617-12.4,10.749-12.4,17.235s4.409,12.645,12.409,17.235c16.573,9.57,43.542,9.57,60.115,0h0c8-4.617,12.4-10.749,12.4-17.235s-4.409-12.645-12.409-17.235C313.291,153.829,302.405,151.434,291.52,151.434Z" transform="translate(-165.829 -78.184)" fill="#42e8e0" opacity="0.4"/>
      <path id="Path_69" data-name="Path 69" d="M290.343,206.574c-13.888,0-27.776-3.048-38.344-9.153C241.73,191.489,236.07,183.6,236.07,175.2s5.66-16.328,15.929-22.224c21.145-12.21,55.543-12.21,76.688,0,10.269,5.933,15.929,13.825,15.929,22.224s-5.66,16.328-15.929,22.224C318.119,203.535,304.231,206.574,290.343,206.574Zm0-62.455c-13.834,0-27.658,3.039-38.19,9.117-10.169,5.869-15.775,13.67-15.775,21.952s5.6,16.083,15.775,21.952c21.054,12.155,55.334,12.155,76.371,0,10.169-5.869,15.775-13.67,15.775-21.952s-5.6-16.083-15.775-21.952c-10.523-6.069-24.356-9.107-38.181-9.107Z" transform="translate(-164.652 -77.508)" fill="#42e8e0" opacity="0.2"/>
      <path id="Path_70" data-name="Path 70" d="M292.448,195.941c-8.627,0-17.235-1.9-23.812-5.688-6.35-3.692-9.906-8.609-9.906-13.843s3.52-10.151,9.906-13.843c13.135-7.584,34.471-7.584,47.624,0,6.35,3.692,9.906,8.609,9.906,13.843s-3.52,10.151-9.906,13.843l-.082-.136.082.136C309.692,194.045,301.074,195.941,292.448,195.941Zm0-38.743c-8.563,0-17.135,1.887-23.658,5.651-6.286,3.628-9.752,8.445-9.752,13.607s3.465,9.978,9.752,13.607c13.044,7.529,34.271,7.529,47.315,0,6.286-3.628,9.752-8.445,9.752-13.607s-3.465-9.978-9.752-13.607c-6.522-3.765-15.095-5.651-23.658-5.651Z" transform="translate(-166.757 -78.722)" fill="#42e8e0"/>
      <g id="Group_10" data-name="Group 10" transform="translate(100.854 40.667)" clip-path="url(#clip-path-2)">
        <path id="Path_71" data-name="Path 71" d="M312.355,184.465c0-10.114-7.1-22.415-15.866-27.477-4.39-2.531-8.364-2.767-11.23-1.1h0l-3,1.751.907.082c-1.578,1.932-2.5,4.79-2.5,8.427,0,10.114,7.1,22.415,15.866,27.477a13.36,13.36,0,0,0,8.219,2.1l-.064.807,3.048-1.814h0l.127-.073h0C310.631,192.956,312.355,189.454,312.355,184.465Z" transform="translate(-269.648 -119.198)" fill="#19d873"/>
        <path id="Path_72" data-name="Path 72" d="M309.011,186.425c0,10.114-7.1,14.215-15.866,9.162S277.28,178.225,277.28,168.11s7.1-14.215,15.866-9.162S309.011,176.3,309.011,186.425Z" transform="translate(-269.334 -119.38)" fill="#26bd72"/>
      </g>
      <path id="Path_74" data-name="Path 74" d="M243.724,231.835l-49.837-28.792a2.2,2.2,0,0,1,0-3.819l7.6-4.427a8.219,8.219,0,0,1,8.219,0l49.819,28.765a2.2,2.2,0,0,1,0,3.819l-7.584,4.454A8.219,8.219,0,0,1,243.724,231.835Z" transform="translate(-160.632 -82.141)" fill="#26bd72"/>
      <path id="Path_75" data-name="Path 75" d="M220.624,202.765l-7.974-4.6,1.587-.916,7.974,4.6Z" transform="translate(-162.477 -82.471)" fill="#00b159"/>
      <path id="Path_76" data-name="Path 76" d="M245.969,217.761l-2.449-1.415,1.587-.916,2.449,1.415Z" transform="translate(-165.344 -84.16)" fill="#00b159"/>
      <path id="Path_77" data-name="Path 77" d="M226.28,206.111l-2.44-1.415,1.578-.916,2.449,1.415Z" transform="translate(-163.516 -83.078)" fill="#00b159"/>
      <path id="Path_78" data-name="Path 78" d="M247.817,225.374a8.391,8.391,0,0,1-4.2-1.125L193.8,195.485a2.386,2.386,0,0,1,0-4.127l7.6-4.472a8.418,8.418,0,0,1,8.4,0l49.819,28.765a2.386,2.386,0,0,1,0,4.127l-7.6,4.427A8.391,8.391,0,0,1,247.817,225.374Zm-42.208-39.206a8.037,8.037,0,0,0-4.019,1.07l-7.6,4.427a2.023,2.023,0,0,0,0,3.511l49.774,28.765a8.055,8.055,0,0,0,8.037,0l7.6-4.427a2.023,2.023,0,0,0,0-3.5l-49.819-28.765a8.028,8.028,0,0,0-3.982-1.079Z" transform="translate(-160.616 -81.404)" fill="#42e8e0"/>
    </g>
  </g>
</svg>
